<?xml version="1.0" encoding="UTF-8" standalone="no"?>
<!-- Created with Inkscape (http://www.inkscape.org/) -->

<svg
   xmlns:dc="http://purl.org/dc/elements/1.1/"
   xmlns:cc="http://creativecommons.org/ns#"
   xmlns:rdf="http://www.w3.org/1999/02/22-rdf-syntax-ns#"
   xmlns:svg="http://www.w3.org/2000/svg"
   xmlns="http://www.w3.org/2000/svg"
   xmlns:sodipodi="http://sodipodi.sourceforge.net/DTD/sodipodi-0.dtd"
   xmlns:inkscape="http://www.inkscape.org/namespaces/inkscape"
   width="1128"
   height="191"
   viewBox="0 0 298.45 50.535417"
   version="1.1"
   id="svg63"
   inkscape:version="0.92.4 5da689c313, 2019-01-14"
   sodipodi:docname="cover_linkedin.svg"
   inkscape:export-filename="/home/visi/pc.png"
   inkscape:export-xdpi="126"
   inkscape:export-ydpi="126">
  <defs
     id="defs57">
    <linearGradient
       id="linearGradient3837">
      <stop
         id="stop3839"
         offset="0"
         style="stop-color:#000000;stop-opacity:0.64782609" />
      <stop
         id="stop3841"
         offset="1"
         style="stop-color:#000000;stop-opacity:0;" />
    </linearGradient>
    <clipPath
       clipPathUnits="userSpaceOnUse"
       id="clipPath3845">
      <path
         sodipodi:nodetypes="csssscc"
         inkscape:connector-curvature="0"
         id="path3847"
         d="m 416.18301,301.68523 v 162.27579 c 0,8.70572 -7.00857,15.71429 -15.71428,15.71429 H 160.32201 c -8.70571,0 -15.71428,-7.00857 -15.71428,-15.71429 V 301.68523 Z"
         style="color:#000000;display:inline;overflow:visible;visibility:visible;fill:#ce8757;fill-opacity:1;fill-rule:evenodd;stroke:none;stroke-width:46.59999847;marker:none;enable-background:accumulate" />
    </clipPath>
    <clipPath
       clipPathUnits="userSpaceOnUse"
       id="clipPath3890">
      <g
         style="fill:#fb803b;fill-opacity:1"
         inkscape:label="Capa 1"
         id="g3892"
         transform="translate(-169.08898,-42.45523)">
        <path
           style="color:#000000;display:inline;overflow:visible;visibility:visible;fill:#fb803b;fill-opacity:1;fill-rule:evenodd;stroke:none;stroke-width:16;marker:none;enable-background:accumulate"
           d="m 167.98141,661.40578 c -16.30492,0 -29.49816,13.19413 -29.49816,29.49961 2.49945,19.58548 -4.02321,20.6274 -19.89952,29.96347 -16.55194,11.95577 -19.40432,11.99794 -35.819182,2.34302 -14.12047,-8.15325 -32.114855,-3.35202 -40.26731,10.76986 l -12.173837,21.06968 c -8.152454,14.11982 -3.351303,32.11415 10.769163,40.26637 18.087387,7.49808 15.503042,14.06017 15.685521,32.30958 2.064069,20.35793 0.983193,22.99202 -15.685521,32.30546 -14.120466,8.15326 -18.921617,25.67858 -10.769163,39.80045 l 12.173837,21.06866 c 8.152455,14.12084 26.14684,18.92207 40.26731,10.76985 15.876482,-11.73463 19.946652,-6.52815 35.819182,2.80998 18.03621,8.44637 19.89952,10.93134 19.89952,29.49752 0,16.3045 13.19324,29.4986 29.49816,29.4986 h 24.34767 c 16.30491,0 29.49814,-13.1941 29.49814,-29.4986 -2.51109,-19.28104 4.35258,-20.40423 19.89955,-29.73203 16.53894,-12.13267 19.32424,-12.2777 35.81917,-2.57547 14.12046,8.15222 32.11485,3.35099 40.26731,-10.76985 l 12.17384,-21.06866 c 8.15244,-14.12187 3.3513,-31.64719 -10.76917,-39.80045 -18.08782,-7.49601 -15.50306,-14.0581 -15.6856,-32.30546 -2.06435,-20.35998 -0.98276,-22.99408 15.68544,-32.30958 14.12048,-8.15222 18.92163,-26.14655 10.76917,-40.26637 l -12.17384,-21.06968 c -8.15245,-14.12188 -26.14685,-18.92311 -40.2673,-10.76986 -15.84972,12.20673 -19.74448,7.1134 -35.81917,-2.34302 -18.2917,-8.52455 -19.89954,-11.15247 -19.89954,-29.96347 0,-16.30548 -13.19324,-29.49961 -29.49814,-29.49961 z"
           id="path3894"
           inkscape:connector-curvature="0"
           sodipodi:nodetypes="scccccccccccccsscccccccccccccss" />
        <path
           sodipodi:nodetypes="scccccccccccccsscccccccccccccss"
           inkscape:connector-curvature="0"
           id="path3896"
           d="m 167.98141,661.40578 c -16.30492,0 -29.49816,13.19413 -29.49816,29.49961 2.49945,19.58548 -4.02321,20.6274 -19.89952,29.96347 -16.55194,11.95577 -19.40432,11.99794 -35.819182,2.34302 -14.12047,-8.15325 -32.114855,-3.35202 -40.26731,10.76986 l -12.173837,21.06968 c -8.152454,14.11982 -3.351303,32.11415 10.769163,40.26637 18.087387,7.49808 15.503042,14.06017 15.685521,32.30958 2.064069,20.35793 0.983193,22.99202 -15.685521,32.30546 -14.120466,8.15326 -18.921617,25.67858 -10.769163,39.80045 l 12.173837,21.06866 c 8.152455,14.12084 26.14684,18.92207 40.26731,10.76985 15.876482,-11.73463 19.946652,-6.52815 35.819182,2.80998 18.03621,8.44637 19.89952,10.93134 19.89952,29.49752 0,16.3045 13.19324,29.4986 29.49816,29.4986 h 24.34767 c 16.30491,0 29.49814,-13.1941 29.49814,-29.4986 -2.51109,-19.28104 4.35258,-20.40423 19.89955,-29.73203 16.53894,-12.13267 19.32424,-12.2777 35.81917,-2.57547 14.12046,8.15222 32.11485,3.35099 40.26731,-10.76985 l 12.17384,-21.06866 c 8.15244,-14.12187 3.3513,-31.64719 -10.76917,-39.80045 -18.08782,-7.49601 -15.50306,-14.0581 -15.6856,-32.30546 -2.06435,-20.35998 -0.98276,-22.99408 15.68544,-32.30958 14.12048,-8.15222 18.92163,-26.14655 10.76917,-40.26637 l -12.17384,-21.06968 c -8.15245,-14.12188 -26.14685,-18.92311 -40.2673,-10.76986 -15.84972,12.20673 -19.74448,7.1134 -35.81917,-2.34302 -18.2917,-8.52455 -19.89954,-11.15247 -19.89954,-29.96347 0,-16.30548 -13.19324,-29.49961 -29.49814,-29.49961 z"
           style="color:#000000;display:inline;overflow:visible;visibility:visible;fill:#fb803b;fill-opacity:1;fill-rule:evenodd;stroke:none;stroke-width:16;marker:none;enable-background:accumulate" />
        <path
           style="color:#000000;display:inline;overflow:visible;visibility:visible;fill:#fb803b;fill-opacity:1;fill-rule:evenodd;stroke:none;stroke-width:16;marker:none;enable-background:accumulate"
           d="m 167.98141,661.40578 c -16.30492,0 -29.49816,13.19413 -29.49816,29.49961 2.49945,19.58548 -4.02321,20.6274 -19.89952,29.96347 -16.55194,11.95577 -19.40432,11.99794 -35.819182,2.34302 -14.12047,-8.15325 -32.114855,-3.35202 -40.26731,10.76986 l -12.173837,21.06968 c -8.152454,14.11982 -3.351303,32.11415 10.769163,40.26637 18.087387,7.49808 15.503042,14.06017 15.685521,32.30958 2.064069,20.35793 0.983193,22.99202 -15.685521,32.30546 -14.120466,8.15326 -18.921617,25.67858 -10.769163,39.80045 l 12.173837,21.06866 c 8.152455,14.12084 26.14684,18.92207 40.26731,10.76985 15.876482,-11.73463 19.946652,-6.52815 35.819182,2.80998 18.03621,8.44637 19.89952,10.93134 19.89952,29.49752 0,16.3045 13.19324,29.4986 29.49816,29.4986 h 24.34767 c 16.30491,0 29.49814,-13.1941 29.49814,-29.4986 -2.51109,-19.28104 4.35258,-20.40423 19.89955,-29.73203 16.53894,-12.13267 19.32424,-12.2777 35.81917,-2.57547 14.12046,8.15222 32.11485,3.35099 40.26731,-10.76985 l 12.17384,-21.06866 c 8.15244,-14.12187 3.3513,-31.64719 -10.76917,-39.80045 -18.08782,-7.49601 -15.50306,-14.0581 -15.6856,-32.30546 -2.06435,-20.35998 -0.98276,-22.99408 15.68544,-32.30958 14.12048,-8.15222 18.92163,-26.14655 10.76917,-40.26637 l -12.17384,-21.06968 c -8.15245,-14.12188 -26.14685,-18.92311 -40.2673,-10.76986 -15.84972,12.20673 -19.74448,7.1134 -35.81917,-2.34302 -18.2917,-8.52455 -19.89954,-11.15247 -19.89954,-29.96347 0,-16.30548 -13.19324,-29.49961 -29.49814,-29.49961 z"
           id="path3898"
           inkscape:connector-curvature="0"
           sodipodi:nodetypes="scccccccccccccsscccccccccccccss" />
      </g>
    </clipPath>
    <clipPath
       clipPathUnits="userSpaceOnUse"
       id="clipPath3872">
      <path
         style="color:#000000;display:inline;overflow:visible;visibility:visible;fill:#fb803b;fill-opacity:1;fill-rule:evenodd;stroke:none;stroke-width:16;marker:none;enable-background:accumulate"
         d="m 302.909,244.00824 c -7.95532,0 -14.39242,6.43753 -14.39242,14.39312 1.21951,9.55592 -1.96296,10.06428 -9.70915,14.61944 -8.07583,5.83332 -9.46754,5.8539 -17.47649,1.14318 -6.8895,-3.97805 -15.66912,-1.63548 -19.64678,5.2547 l -5.93972,10.28009 c -3.97765,6.88918 -1.63513,15.66877 5.25437,19.64631 8.825,3.65838 7.56407,6.86008 7.65311,15.76413 1.00707,9.93281 0.4797,11.21801 -7.65311,15.76212 -6.8895,3.97805 -9.23202,12.5288 -5.25437,19.41899 l 5.93972,10.27958 c 3.97766,6.88968 12.75728,9.23225 19.64678,5.25471 7.74627,-5.72543 9.73215,-3.18514 17.47649,1.37101 8.80003,4.12106 9.70915,5.3335 9.70915,14.3921 0,7.95511 6.4371,14.39263 14.39242,14.39263 h 11.87944 c 7.95531,0 14.3924,-6.43752 14.3924,-14.39263 -1.22518,-9.40739 2.12366,-9.9554 9.70916,-14.50652 8.0695,-5.91963 9.42847,-5.9904 17.47649,-1.25659 6.8895,3.97754 15.66912,1.63497 19.64678,-5.25471 l 5.93972,-10.27958 c 3.97765,-6.89019 1.63513,-15.44094 -5.25437,-19.41899 -8.82521,-3.65737 -7.56408,-6.85907 -7.65314,-15.76212 -1.00722,-9.93381 -0.4795,-11.21901 7.65306,-15.76413 6.88951,-3.97754 9.23203,-12.75713 5.25437,-19.64631 l -5.93972,-10.28009 c -3.97765,-6.89018 -12.75728,-9.23275 -19.64677,-5.2547 -7.73322,5.95577 -9.63351,3.47069 -17.47649,-1.14318 -8.92468,-4.15921 -9.70916,-5.44139 -9.70916,-14.61944 0,-7.95559 -6.4371,-14.39312 -14.3924,-14.39312 z"
         id="path3874"
         inkscape:connector-curvature="0"
         sodipodi:nodetypes="scccccccccccccsscccccccccccccss" />
    </clipPath>
  </defs>
  <sodipodi:namedview
     id="base"
     pagecolor="#ffffff"
     bordercolor="#666666"
     borderopacity="1.0"
     inkscape:pageopacity="0.0"
     inkscape:pageshadow="2"
     inkscape:zoom="0.125"
     inkscape:cx="-1601.4479"
     inkscape:cy="-308.54978"
     inkscape:document-units="mm"
     inkscape:current-layer="layer1"
     showgrid="false"
     inkscape:window-width="1317"
     inkscape:window-height="696"
     inkscape:window-x="47"
     inkscape:window-y="215"
     inkscape:window-maximized="0"
     units="px"
     borderlayer="false"
     showborder="true"
     showguides="true">
    <inkscape:grid
       type="xygrid"
       id="grid1220" />
  </sodipodi:namedview>
  <metadata
     id="metadata60">
    <rdf:RDF>
      <cc:Work
         rdf:about="">
        <dc:format>image/svg+xml</dc:format>
        <dc:type
           rdf:resource="http://purl.org/dc/dcmitype/StillImage" />
        <dc:title></dc:title>
      </cc:Work>
    </rdf:RDF>
  </metadata>
  <g
     inkscape:label="Calque 1"
     inkscape:groupmode="layer"
     id="layer1"
     transform="translate(0,-246.46456)"
     style="display:inline" />
</svg>
